<svg width="30" height="30" viewBox="0 0 30 30" fill="none" xmlns="http://www.w3.org/2000/svg">
<path d="M14.9997 0.833313C7.17967 0.833313 0.833008 7.17998 0.833008 15C0.833008 22.82 7.17967 29.1666 14.9997 29.1666C22.8197 29.1666 29.1663 22.82 29.1663 15C29.1663 7.17998 22.8197 0.833313 14.9997 0.833313ZM14.9997 5.08331C17.3513 5.08331 19.2497 6.98165 19.2497 9.33331C19.2497 11.685 17.3513 13.5833 14.9997 13.5833C12.648 13.5833 10.7497 11.685 10.7497 9.33331C10.7497 6.98165 12.648 5.08331 14.9997 5.08331ZM14.9997 25.2C11.458 25.2 8.32717 23.3866 6.49967 20.6383C6.54217 17.8191 12.1663 16.275 14.9997 16.275C17.8188 16.275 23.4572 17.8191 23.4997 20.6383C21.6722 23.3866 18.5413 25.2 14.9997 25.2Z" fill="#0D1C41"/>
</svg>
